<svg xmlns="http://www.w3.org/2000/svg" xml:space="preserve" id="Layer_1" width="800" height="800" viewBox="0 0 504.115 504.115"><linearGradient id="SVGID_1_" x1="-16.819" x2="-14.362" y1="556.311" y2="592.492" gradientTransform="matrix(7.8769 0 0 -7.8769 364.0898 4969.6353)" gradientUnits="userSpaceOnUse" patternTransform="matrix(7.8769,0,0,-7.8769,364.09,4969.64)"><stop offset="0" style="stop-color:#29d3da"/><stop offset=".519" style="stop-color:#07f"/><stop offset=".999" style="stop-color:#064093"/><stop offset="1" style="stop-color:#084698"/></linearGradient><path d="M98.622 422.892c40.708 36.604 94.381 59.045 153.435 59.045 49.987 0 96.091-16.116 133.829-43.205L265.731 280.233c-62.047 56.336-125.708 110.774-167.109 142.659" style="fill:url(#SVGID_1_)"/><linearGradient id="SVGID_2_" x1="-20.062" x2="-21.705" y1="562.642" y2="575.449" gradientTransform="matrix(7.8769 0 0 -7.8769 364.0898 4969.6353)" gradientUnits="userSpaceOnUse" patternTransform="matrix(7.8769,0,0,-7.8769,364.09,4969.64)"><stop offset="0" style="stop-color:#29d3da"/><stop offset=".519" style="stop-color:#07f"/><stop offset=".999" style="stop-color:#064093"/><stop offset="1" style="stop-color:#084698"/></linearGradient><path d="M265.731 280.233c-62.047 56.328-125.708 110.765-167.109 142.651 40.708 36.604 94.381 59.045 153.435 59.045" style="fill:url(#SVGID_2_)"/><linearGradient id="SVGID_3_" x1="-63.962" x2="-9.914" y1="604.037" y2="591.303" gradientTransform="matrix(7.8769 0 0 -7.8769 364.0898 4969.6353)" gradientUnits="userSpaceOnUse" patternTransform="matrix(7.8769,0,0,-7.8769,364.09,4969.64)"><stop offset=".012" style="stop-color:#e0b386"/><stop offset=".519" style="stop-color:#da498c"/><stop offset="1" style="stop-color:#961484"/></linearGradient><path d="M65.381 118.245C38.3 155.959 22.176 202.071 22.176 252.05c0 59.061 22.449 112.742 59.045 153.45 31.878-41.441 86.292-105.062 142.643-167.133Z" style="fill:url(#SVGID_3_)"/><linearGradient id="SVGID_4_" x1="-45.353" x2="-5.819" y1="610.902" y2="581.419" gradientTransform="matrix(7.8769 0 0 -7.8769 364.0898 4969.6353)" gradientUnits="userSpaceOnUse" patternTransform="matrix(7.8769,0,0,-7.8769,364.09,4969.64)"><stop offset=".012" style="stop-color:#e0b386"/><stop offset=".519" style="stop-color:#da498c"/><stop offset="1" style="stop-color:#961484"/></linearGradient><path d="M223.873 238.376 65.381 118.245C38.3 155.959 22.176 202.071 22.176 252.05" style="fill:url(#SVGID_4_)"/><linearGradient id="SVGID_5_" x1="18.477" x2="-105.419" y1="654.995" y2="531.101" gradientTransform="matrix(7.8769 0 0 -7.8769 364.0898 4969.6353)" gradientUnits="userSpaceOnUse" patternTransform="matrix(7.8769,0,0,-7.8769,364.09,4969.64)"><stop offset=".012" style="stop-color:#e0b386"/><stop offset=".519" style="stop-color:#da498c"/><stop offset="1" style="stop-color:#961484"/></linearGradient><path d="M383.869 72.472c1.757-1.772 3.277-3.237 4.939-4.892-38.258-28.388-85.441-45.41-136.751-45.41-50.428 0-96.941 16.439-134.861 43.977l199.908 73.232c3.844-3.939 63-63.15 66.765-66.907" style="fill:url(#SVGID_5_)"/><linearGradient id="SVGID_6_" x1="-16.271" x2="-12.139" y1="608.77" y2="634.792" gradientTransform="matrix(7.8769 0 0 -7.8769 364.0898 4969.6353)" gradientUnits="userSpaceOnUse" patternTransform="matrix(7.8769,0,0,-7.8769,364.09,4969.64)"><stop offset=".012" style="stop-color:#e0b386"/><stop offset=".519" style="stop-color:#da498c"/><stop offset="1" style="stop-color:#961484"/></linearGradient><path d="M383.869 72.472c1.757-1.772 3.277-3.237 4.939-4.892-38.258-28.388-85.441-45.41-136.751-45.41-50.428 0-96.941 16.439-134.861 43.977" style="fill:url(#SVGID_6_)"/><linearGradient id="SVGID_7_" x1="41.856" x2="-82.024" y1="631.608" y2="507.722" gradientTransform="matrix(7.8769 0 0 -7.8769 364.0898 4969.6353)" gradientUnits="userSpaceOnUse" patternTransform="matrix(7.8769,0,0,-7.8769,364.09,4969.64)"><stop offset="0" style="stop-color:#29d3da"/><stop offset=".519" style="stop-color:#07f"/><stop offset=".999" style="stop-color:#064093"/><stop offset="1" style="stop-color:#084698"/></linearGradient><path d="m364.736 187.018 73.232 199.877c27.538-37.904 43.969-84.409 43.969-134.845 0-51.31-17.014-98.525-45.418-136.775a897 897 0 0 1-4.892 4.955c-3.774 3.757-62.969 62.92-66.891 66.788" style="fill:url(#SVGID_7_)"/><linearGradient id="SVGID_8_" x1="28.627" x2="3.171" y1="600.161" y2="598.678" gradientTransform="matrix(7.8769 0 0 -7.8769 364.0898 4969.6353)" gradientUnits="userSpaceOnUse" patternTransform="matrix(7.8769,0,0,-7.8769,364.09,4969.64)"><stop offset="0" style="stop-color:#29d3da"/><stop offset=".519" style="stop-color:#07f"/><stop offset=".999" style="stop-color:#064093"/><stop offset="1" style="stop-color:#084698"/></linearGradient><path d="M437.967 386.895c27.538-37.904 43.969-84.409 43.969-134.845 0-51.31-17.014-98.525-45.418-136.775a897 897 0 0 1-4.892 4.955" style="fill:url(#SVGID_8_)"/><linearGradient id="SVGID_9_" x1="20.999" x2="-60.436" y1="634.131" y2="552.699" gradientTransform="matrix(7.8769 0 0 -7.8769 364.0898 4969.6353)" gradientUnits="userSpaceOnUse" patternTransform="matrix(7.8769,0,0,-7.8769,364.09,4969.64)"><stop offset=".012" style="stop-color:#e0b386"/><stop offset=".519" style="stop-color:#da498c"/><stop offset="1" style="stop-color:#961484"/></linearGradient><path d="M81.222 405.5c-1.418 1.851-3.08 3.931-4.403 5.695L17.49 395.969a9.76 9.76 0 0 0-9.397 2.513l-5.199 5.238c-2.032 2.064-3.096 4.923-2.844 7.822.197 2.292 1.229 4.45 2.844 6.065.402.41.843.772 1.292 1.111l44.276 31.035c1.323.929 2.828 1.363 4.34 1.568.181 1.481.63 3.025 1.568 4.34l31.004 44.245c.386.488.709.89 1.15 1.315a9.88 9.88 0 0 0 6.065 2.859 9.85 9.85 0 0 0 7.798-2.859l5.23-5.191a9.73 9.73 0 0 0 2.536-9.397L92.95 427.311c1.757-1.331 3.828-2.985 5.679-4.419A229 229 0 0 1 81.222 405.5" style="fill:url(#SVGID_9_)"/><linearGradient id="SVGID_10_" x1="-2.473" x2="-83.933" y1="657.631" y2="576.171" gradientTransform="matrix(7.8769 0 0 -7.8769 364.0898 4969.6353)" gradientUnits="userSpaceOnUse" patternTransform="matrix(7.8769,0,0,-7.8769,364.09,4969.64)"><stop offset=".012" style="stop-color:#e0b386"/><stop offset=".519" style="stop-color:#da498c"/><stop offset="1" style="stop-color:#961484"/></linearGradient><path d="m117.195 66.147-64.52-23.639c-4.71-1.694-9.988-.559-13.54 3.001L19.506 65.138a13.02 13.02 0 0 0-3.742 9.972c.244 3.143 1.552 6.018 3.757 8.216.402.402.859.819 1.339 1.166l44.52 33.753c14.384-20.039 31.895-37.605 51.815-52.098" style="fill:url(#SVGID_10_)"/><linearGradient id="SVGID_11_" x1="-38.711" x2="-37.479" y1="613.891" y2="624.722" gradientTransform="matrix(7.8769 0 0 -7.8769 364.0898 4969.6353)" gradientUnits="userSpaceOnUse" patternTransform="matrix(7.8769,0,0,-7.8769,364.09,4969.64)"><stop offset=".012" style="stop-color:#e0b386"/><stop offset=".519" style="stop-color:#da498c"/><stop offset="1" style="stop-color:#961484"/></linearGradient><path d="M19.506 65.138a13.02 13.02 0 0 0-3.742 9.972c.244 3.143 1.552 6.018 3.757 8.216.402.402.859.819 1.339 1.166l44.52 33.753c14.383-20.039 31.894-37.597 51.814-52.09" style="fill:url(#SVGID_11_)"/><linearGradient id="SVGID_12_" x1="44.488" x2="-36.954" y1="610.654" y2="529.21" gradientTransform="matrix(7.8769 0 0 -7.8769 364.0898 4969.6353)" gradientUnits="userSpaceOnUse" patternTransform="matrix(7.8769,0,0,-7.8769,364.09,4969.64)"><stop offset="0" style="stop-color:#29d3da"/><stop offset=".519" style="stop-color:#07f"/><stop offset=".999" style="stop-color:#064093"/><stop offset="1" style="stop-color:#084698"/></linearGradient><path d="m385.885 438.725 33.753 44.544c.339.457.725.89 1.15 1.315a12.8 12.8 0 0 0 8.184 3.742c3.726.252 7.373-1.103 9.988-3.726l19.629-19.637a12.82 12.82 0 0 0 3.001-13.525l-23.631-64.544a231.5 231.5 0 0 1-52.074 51.831" style="fill:url(#SVGID_12_)"/><linearGradient id="SVGID_13_" x1="-2.756" x2="11.656" y1="572.934" y2="576.073" gradientTransform="matrix(7.8769 0 0 -7.8769 364.0898 4969.6353)" gradientUnits="userSpaceOnUse" patternTransform="matrix(7.8769,0,0,-7.8769,364.09,4969.64)"><stop offset="0" style="stop-color:#29d3da"/><stop offset=".519" style="stop-color:#07f"/><stop offset=".999" style="stop-color:#064093"/><stop offset="1" style="stop-color:#084698"/></linearGradient><path d="m438.968 484.6 19.629-19.637a12.82 12.82 0 0 0 3.001-13.525l-23.631-64.544" style="fill:url(#SVGID_13_)"/><linearGradient id="SVGID_14_" x1="21.006" x2="-60.432" y1="634.143" y2="552.702" gradientTransform="matrix(7.8769 0 0 -7.8769 364.0898 4969.6353)" gradientUnits="userSpaceOnUse" patternTransform="matrix(7.8769,0,0,-7.8769,364.09,4969.64)"><stop offset="0" style="stop-color:#29d3da"/><stop offset=".519" style="stop-color:#07f"/><stop offset=".999" style="stop-color:#064093"/><stop offset="1" style="stop-color:#084698"/></linearGradient><path d="M502.07 2.021c-2.907-2.938-9.523-2.828-20.047 1.363-4.198.922-8.988 3.23-14.171 7.026-27.065 15.281-18.204-3.159-79.045 57.179a231 231 0 0 1 47.711 47.695c60.337-60.833 41.921-51.956 57.202-79.029 3.757-5.191 6.073-9.98 6.971-14.194 4.23-10.509 4.317-17.094 1.379-20.04" style="fill:url(#SVGID_14_)"/><linearGradient id="SVGID_15_" x1="-8.757" x2="36.279" y1="608.179" y2="641.751" gradientTransform="matrix(7.8769 0 0 -7.8769 364.0898 4969.6353)" gradientUnits="userSpaceOnUse" patternTransform="matrix(7.8769,0,0,-7.8769,364.09,4969.64)"><stop offset="0" style="stop-color:#29d3da"/><stop offset=".519" style="stop-color:#07f"/><stop offset=".999" style="stop-color:#064093"/><stop offset="1" style="stop-color:#084698"/></linearGradient><path d="M388.808 67.58a231 231 0 0 1 47.711 47.695c60.337-60.833 41.921-51.956 57.202-79.029 3.757-5.191 6.073-9.98 6.971-14.194 4.23-10.5 4.324-17.085 1.386-20.031" style="fill:url(#SVGID_15_)"/><linearGradient id="SVGID_16_" x1="12.11" x2="16.648" y1="614.937" y2="641.441" gradientTransform="matrix(7.8769 0 0 -7.8769 364.0898 4969.6353)" gradientUnits="userSpaceOnUse" patternTransform="matrix(7.8769,0,0,-7.8769,364.09,4969.64)"><stop offset="0" style="stop-color:#29d3da"/><stop offset=".519" style="stop-color:#07f"/><stop offset=".999" style="stop-color:#064093"/><stop offset="1" style="stop-color:#084698"/></linearGradient><path d="M436.518 115.275c60.337-60.833 41.921-51.956 57.202-79.029 3.757-5.191 6.073-9.98 6.971-14.194 4.23-10.5 4.324-17.085 1.386-20.031" style="fill:url(#SVGID_16_)"/></svg>